<svg width="274" height="274" xmlns="http://www.w3.org/2000/svg" xmlns:xlink="http://www.w3.org/1999/xlink" overflow="hidden"><defs><clipPath id="clip0"><rect x="490" y="197" width="274" height="274"/></clipPath></defs><g clip-path="url(#clip0)" transform="translate(-490 -197)"><path d="M684.083 283.196C677.233 283.196 671.525 277.487 671.81 270.352 671.81 263.502 677.519 257.794 684.369 257.794 691.219 257.794 696.927 263.502 696.927 270.352 696.927 273.777 695.5 276.917 693.217 279.2 690.648 281.769 687.508 283.196 684.083 283.196ZM671.81 243.523C665.531 245.806 660.679 250.658 657.54 256.367 653.544 264.073 652.973 272.921 656.112 280.913L669.812 310.596 678.946 329.433C679.802 331.431 681.8 332.573 684.083 332.573 686.367 332.573 688.365 331.431 689.221 329.433L698.354 310.596 712.054 281.198C713.481 277.773 714.052 274.062 714.052 270.352 714.052 250.373 693.502 235.246 671.81 243.523Z" fill="#FFFFFF"/><path d="M621.292 404.783 575.625 381.95 575.625 288.904 621.292 311.737 621.292 404.783ZM564.208 381.95 529.958 399.075 529.958 306.029 564.208 288.904 564.208 381.95ZM722.329 286.05 722.329 286.05 715.194 301.462 724.042 306.029 724.042 399.075 689.792 381.95 689.792 343.99 678.375 343.99 678.375 381.95 632.708 404.783 632.708 311.737 652.973 301.462 645.838 286.05 627 295.469 569.917 266.927 512.833 295.469 512.833 426.76 569.917 398.219 627 426.76 684.083 398.219 741.167 426.76 741.167 295.469 722.329 286.05Z" fill="#FFFFFF"/></g></svg>