<svg width="239" height="200" xmlns="http://www.w3.org/2000/svg" xmlns:xlink="http://www.w3.org/1999/xlink" overflow="hidden"><defs><clipPath id="clip0"><rect x="333" y="88" width="239" height="200"/></clipPath></defs><g clip-path="url(#clip0)" transform="translate(-333 -88)"><path d="M178.007 130.398 178.007 131.545 190.053 131.545 186.612 104.395 181.832 83.1718 188.715 83.1718 188.715 68.4491 181.832 61.9486 172.846 61.9486 172.846 62.9049 178.39 62.9049C175.33 65.0081 169.021 66.3458 161.564 66.3458 162.328 66.1551 162.903 65.5816 162.903 64.816 162.903 63.8597 162.139 63.0955 161.183 63.0955 160.226 63.0955 159.462 63.8597 159.462 64.816 159.462 65.5802 160.036 66.1551 160.801 66.3458 153.727 66.3458 147.608 64.816 144.741 62.9049L150.668 62.9049 150.668 61.9486 141.108 61.9486 134.224 68.4491 134.224 83.1718 140.534 83.1718 135.563 105.542 132.122 133.266 144.168 133.266 144.164 131.927 134.795 131.927 137.472 105.35 141.488 82.7891 146.077 82.7891 146.077 82.5984 150.666 95.0257 150.475 95.0257 144.548 136.898 140.725 185.846 182.024 185.846 178.2 136.898 172.273 95.0257 172.083 95.0257 176.672 82.5984 176.672 82.7891 180.688 82.7891 184.703 104.203 187.38 130.206 178.007 130.206ZM174.184 134.987 177.051 176.477 146.077 176.477 148.944 134.987 153.151 101.527 169.977 101.527ZM178.007 80.8769 174.566 80.8769 174.566 80.6862 170.36 90.6289 169.596 94.2621 153.535 94.2621 152.771 90.6289 148.18 80.6862 148.18 80.8769 138.047 80.8769 138.047 70.1701 143.974 65.3901 146.077 65.3901C147.99 67.3026 154.107 68.6403 161.373 68.6403 168.639 68.6403 174.757 67.3012 176.67 65.3901L178.773 65.3901 184.7 70.1701 184.7 80.8769Z" fill="#FFFFFF" transform="matrix(1 0 0 1.00321 333 88)"/><path d="M146.65 41.2992 149.519 30.5923 152.96 22.1792 156.401 21.2229 159.079 20.4587 164.623 20.4587 167.109 21.2229 170.55 22.1792 173.992 30.5923 176.86 41.2992 178.963 60.6101 180.301 60.6101 178.007 39.7696 174.757 29.0627 170.933 20.6496 167.3 19.6933 164.432 18.9291 158.504 18.9291 155.446 19.6933 151.813 20.6496 147.989 29.0627 144.93 39.7696 142.444 60.6101 144.547 60.6101Z" fill="#FFFFFF" transform="matrix(1 0 0 1.00321 333 88)"/><path d="M172.271 61.5664C172.271 63.8604 168.83 63.8604 168.83 61.5664 168.83 59.2724 172.271 59.2724 172.271 61.5664" fill="#FFFFFF" transform="matrix(1 0 0 1.00321 333 88)"/><path d="M168.065 64.052C168.065 66.346 164.624 66.346 164.624 64.052 164.624 61.7567 168.065 61.7567 168.065 64.052" fill="#FFFFFF" transform="matrix(1 0 0 1.00321 333 88)"/><path d="M157.74 63.8608C157.74 66.1561 154.299 66.1561 154.299 63.8608 154.299 61.5668 157.74 61.5668 157.74 63.8608" fill="#FFFFFF" transform="matrix(1 0 0 1.00321 333 88)"/><path d="M154.107 61.5664C154.107 63.8604 150.666 63.8604 150.666 61.5664 150.666 59.2724 154.107 59.2724 154.107 61.5664" fill="#FFFFFF" transform="matrix(1 0 0 1.00321 333 88)"/><path d="M108.41 62.7136 93.8795 57.36 91.0121 52.9627 87.9526 52.9627 87.9526 46.8437C90.4386 44.3577 92.159 40.151 92.5417 35.5632 96.3654 33.4599 98.0858 26.9595 96.1749 20.8405 94.6438 15.2963 90.6294 12.2368 86.9962 12.8101L84.893 12.8101 88.1432 9.75055C88.1432 6.30963 85.0837 3.63147 81.4505 3.63147L81.0677 3.63147 80.4942 3.63147C77.244 4.01424 74.7579 6.69098 74.7579 9.75055L77.8174 12.8101 74.7579 12.8101C73.8016 12.8101 72.8454 13.1928 72.0812 13.7663 69.9779 15.1054 68.0653 17.59 67.1103 20.8404 65.1978 26.9595 66.5368 33.4599 70.3605 35.3713 70.5513 35.3713 70.5513 35.3713 70.7433 35.562 71.1261 40.342 73.0373 44.5484 75.9061 47.0347L75.9061 52.771 71.5088 52.771 69.4055 56.9774 58.3159 61.7574 52.7718 63.2872 52.9625 63.2872 52.7718 63.2872 43.5946 121.03 57.361 124.47 63.6706 85.2745 64.6268 87.7605 64.6268 167.682 81.6436 167.682 81.6423 57.9333 81.0688 57.9333 81.0688 52.7705 76.6702 52.7705 76.6702 47.7997C78.1999 48.9467 79.9204 49.5202 81.641 49.5202 83.5536 49.5202 85.4647 48.756 86.9946 47.4169L86.9946 52.7705 83.171 52.7705 83.1723 52.7705 83.1723 57.9333 82.5988 57.9333 82.5988 167.682 97.5124 167.682 97.5124 83.7453 104.013 123.897 117.587 120.455ZM86.6136 13.384C90.0545 13.0012 93.6877 15.4873 95.2173 19.6936 97.1298 24.6645 95.408 30.0177 91.7763 31.7395 87.9527 33.46 83.3632 30.7833 81.6427 25.8127 81.6427 25.622 81.6427 25.622 81.452 25.4299L86.0401 13.384ZM88.1434 9.56034 87.9527 9.17757 84.8931 12.045 84.5104 12.045 86.9964 7.07416C87.5699 7.83971 87.9527 8.60393 88.1434 9.56017ZM86.6136 6.69289 83.9369 12.0465 83.5541 12.0465 85.0839 5.54466C85.6574 5.92744 86.2309 6.31021 86.6136 6.69299ZM82.7899 4.78034C83.5542 4.97106 84.129 5.16312 84.7025 5.35384L82.7899 12.0465 82.5992 12.0465ZM81.6429 4.58962 82.2164 4.58962 82.2164 12.0464 81.2602 12.0464 81.2602 4.58962 81.6429 4.58962ZM80.6867 4.78034 80.6867 12.0463 80.496 12.0463 78.7755 5.16308C79.3476 4.97103 79.9211 4.78031 80.6867 4.78031ZM78.2007 5.54456 79.9212 12.045 79.3477 12.0464 76.6709 6.50224C77.2444 6.11946 77.6272 5.73668 78.2007 5.54463ZM75.3332 9.1777 75.1412 9.56048C75.3319 8.60421 75.7147 7.64793 76.4802 7.07447L78.7742 12.0453 78.2007 12.0453 78.2007 12.236ZM68.0673 19.8846C69.0235 17.2078 70.744 15.1046 72.8473 14.1482 73.4208 13.5761 74.377 13.384 75.1413 13.384L85.4667 13.384 81.0695 24.4736 80.3039 26.7676C78.2007 30.974 74.3771 33.0772 71.1267 31.5476 67.4935 30.0192 66.1558 24.8563 68.0672 19.8844ZM81.6432 48.3737C76.6723 48.3737 72.4659 43.0201 71.7004 35.9464 75.1413 36.7106 79.1572 33.4604 80.8777 27.916 81.0684 27.5332 81.0684 27.1518 81.2604 26.5769 81.4512 27.1504 81.4512 27.5332 81.6432 28.1067 83.5558 33.8431 87.9528 37.0931 91.7768 35.754 90.8205 42.8294 86.8049 48.3736 81.6432 48.3736ZM107.646 62.9046 108.411 62.7138Z" fill="#FFFFFF" transform="matrix(1 0 0 1.00321 333 88)"/><path d="M67.1112 169.021 80.1121 169.021 80.1121 186.994 67.1112 186.994Z" fill="#FFFFFF" transform="matrix(1 0 0 1.00321 333 88)"/><path d="M82.5984 169.021 95.5993 169.021 95.5993 186.994 82.5984 186.994Z" fill="#FFFFFF" transform="matrix(1 0 0 1.00321 333 88)"/><path d="M161.182 26.5768C154.298 26.5768 148.562 33.46 148.562 42.0637 148.562 47.8 151.048 52.58 154.681 55.2568L154.681 61.7573 155.637 61.7573 155.637 55.8304C157.358 56.7867 159.078 57.3602 161.182 57.3602 163.094 57.3602 165.005 56.7867 166.726 55.8304L166.726 61.7573 167.682 61.7573 167.682 55.2568C171.315 52.5801 173.801 47.6095 173.801 42.0637 173.801 33.46 168.065 26.5768 161.181 26.5768ZM152.004 35.3727C152.578 35.3727 153.151 35.9462 153.151 36.5197 153.151 35.7555 153.725 35.3727 154.298 35.3727 154.872 35.3727 155.255 35.7555 155.445 36.329 155.636 35.7555 156.019 35.3727 156.592 35.3727 157.166 35.3727 157.739 35.9462 157.739 36.5197 157.739 35.7555 158.313 35.3727 158.886 35.3727 159.46 35.3727 160.033 35.9462 160.033 36.5197 160.033 35.7555 160.607 35.3727 161.18 35.3727 161.754 35.3727 162.137 35.7555 162.327 36.329 162.518 35.7555 162.901 35.3727 163.474 35.3727 164.048 35.3727 164.621 35.9462 164.621 36.5197 164.621 35.7555 165.195 35.3727 165.768 35.3727 166.342 35.3727 166.915 35.9462 166.915 36.5197 166.915 35.7555 167.489 35.3727 168.062 35.3727 168.636 35.3727 169.019 35.7555 169.209 36.329 169.4 35.7555 169.783 35.3727 170.356 35.3727 170.93 35.3727 171.503 35.9462 171.503 36.5197 171.503 37.2839 170.93 37.6667 170.356 37.6667 169.783 37.6667 169.4 37.2839 169.209 36.7104 169.019 37.2839 168.636 37.6667 168.062 37.6667 167.489 37.6667 166.915 37.0932 166.915 36.5197 166.915 37.2839 166.342 37.6667 165.768 37.6667 165.195 37.6667 164.621 37.0932 164.621 36.5197 164.621 37.2839 164.048 37.6667 163.474 37.6667 162.901 37.6667 162.518 37.2839 162.327 36.7104 162.137 37.2839 161.754 37.6667 161.18 37.6667 160.607 37.6667 160.033 37.0932 160.033 36.5197 160.033 37.2839 159.46 37.6667 158.886 37.6667 158.313 37.6667 157.739 37.0932 157.739 36.5197 157.739 37.2839 157.166 37.6667 156.592 37.6667 156.019 37.6667 155.636 37.2839 155.445 36.7104 155.255 37.2839 154.872 37.6667 154.298 37.6667 153.725 37.6667 153.151 37.0932 153.151 36.5197 153.151 37.2839 152.578 37.6667 152.004 37.6667 151.431 37.6667 150.857 37.0932 150.857 36.5197 150.857 35.9462 151.24 35.3727 152.004 35.3727ZM161.182 56.2131C154.872 56.2131 149.709 49.9035 149.709 42.064 149.709 40.725 149.9 39.3873 150.092 38.0481L150.092 38.6216C150.474 40.7249 152.768 42.4453 155.445 42.4453 157.931 42.4453 160.034 41.1062 160.608 39.195 161.182 41.1076 163.475 42.4453 165.962 42.4453 168.829 42.4453 171.124 40.7248 171.506 38.6216L171.506 38.0481 171.506 37.8574C171.506 36.9011 171.315 35.9449 170.932 35.1807 171.889 37.2839 172.462 39.5779 172.462 42.0639 172.654 49.9034 167.491 56.213 161.182 56.213Z" fill="#FFFFFF" transform="matrix(1 0 0 1.00321 333 88)"/><path d="M161.373 42.064C161.373 43.0843 160.226 43.0843 160.226 42.064 160.226 41.045 161.373 41.045 161.373 42.064" fill="#FFFFFF" transform="matrix(1 0 0 1.00321 333 88)"/><path d="M6.40725-0.384107C6.07649-0.213393 5.73105-0.0853571 5.37231 0 5.0162 0.0880237 4.64278 0.133369 4.25202 0.133369 3.0917 0.133369 2.17278-0.189387 1.49392-0.837586 0.813727-1.48842 0.474961-2.36869 0.474961-3.47833 0.474961-4.59064 0.813723-5.47087 1.49392-6.11908 2.17278-6.76991 3.0917-7.09536 4.25202-7.09536 4.64278-7.09536 5.01623-7.05001 5.37231-6.96199 5.73108-6.87663 6.07651-6.7486 6.40725-6.57788L6.40725-5.13746C6.07249-5.36152 5.74307-5.5269 5.42032-5.63359 5.09622-5.74029 4.7548-5.79364 4.39603-5.79364 3.75585-5.79364 3.2517-5.58691 2.88627-5.1748 2.5195-4.76536 2.33677-4.19985 2.33677-3.47831 2.33677-2.75943 2.51949-2.19396 2.88627-1.78182 3.2517-1.37238 3.75585-1.1683 4.39603-1.1683 4.7548-1.1683 5.09623-1.21899 5.42032-1.32301 5.74307-1.42971 6.07251-1.59642 6.40725-1.8245Z" fill="#FFFFFF" transform="matrix(1 0 0 1.00321 356.9 308.586)"/><path d="M4.68918-3.80386C4.5398-3.87054 4.39177-3.92122 4.24638-3.95323 4.10367-3.98791 3.95964-4.00658 3.81427-4.00658 3.38349-4.00658 3.05271-3.86787 2.82201-3.59045 2.58994-3.3157 2.47525-2.9236 2.47525-2.41146L2.47525-0.0001195 0.805464-0.0001195 0.805464-5.22807 2.47525-5.22807 2.47525-4.36918C2.68865-4.7106 2.93407-4.95869 3.21144-5.11605 3.49152-5.2761 3.82629-5.35612 4.21439-5.35612 4.2704-5.35612 4.33176-5.35212 4.39577-5.34545 4.46246-5.34145 4.55848-5.33211 4.68385-5.31877Z" fill="#FFFFFF" transform="matrix(1 0 0 1.00321 363.917 308.586)"/><path d="M6.02314-2.63006 6.02314-2.14994 2.11276-2.14994C2.15544-1.75785 2.29681-1.46442 2.53955-1.2697 2.78095-1.07365 3.12103-0.976288 3.55851-0.976288 3.91059-0.976288 4.26936-1.02697 4.63612-1.131 5.00555-1.23769 5.38433-1.39507 5.77243-1.60579L5.77243-0.320103C5.37767-0.170728 4.98288-0.0586984 4.58808 0.0159925 4.19332 0.0933466 3.79853 0.133359 3.40374 0.133359 2.45682 0.133359 1.7206-0.106707 1.1951-0.586851 0.672307-1.06697 0.410875-1.7405 0.410875-2.60876 0.410875-3.46233 0.668282-4.13184 1.18442-4.61998 1.69922-5.11078 2.40741-5.35616 3.30769-5.35616 4.12924-5.35616 4.78676-5.10676 5.28156-4.60929 5.77503-4.11449 6.02311-3.4543 6.02311-2.63006ZM4.30535-3.18488C4.30535-3.50097 4.21199-3.75571 4.02794-3.94777 3.84255-4.14249 3.60115-4.24118 3.3024-4.24118 2.97831-4.24118 2.71555-4.15049 2.51285-3.96911 2.31014-3.78772 2.18342-3.52631 2.13407-3.18488Z" fill="#FFFFFF" transform="matrix(1 0 0 1.00321 368.631 308.586)"/><path d="M3.14756-2.35265C2.79814-2.35265 2.53538-2.29396 2.35801-2.1766 2.18329-2.05923 2.0966-1.88452 2.0966-1.6538 2.0966-1.44041 2.16729-1.27236 2.31-1.15231 2.45137-1.03495 2.64742-0.976267 2.89684-0.976267 3.21293-0.976267 3.47833-1.0883 3.69172-1.31236 3.90778-1.53909 4.01715-1.82184 4.01715-2.16061L4.01715-2.35266ZM5.69762-2.98217 5.69762 0 4.01715 0 4.01715-0.773541C3.79308-0.456118 3.53969-0.225377 3.25958-0.0800309 2.97817 0.0613411 2.63675 0.133362 2.2353 0.133362 1.69383 0.133362 1.25502-0.0226811 0.917589-0.336102 0.578827-0.65219 0.410773-1.06297 0.410773-1.56845 0.410773-2.1793 0.620164-2.62743 1.0403-2.91283 1.46309-3.20091 2.12594-3.34494 3.03018-3.34494L4.01711-3.34494 4.01711-3.47831C4.01711-3.74105 3.91175-3.93309 3.70236-4.05447 3.49163-4.17851 3.16621-4.24119 2.72608-4.24119 2.36597-4.24119 2.03257-4.20518 1.72313-4.1345 1.41638-4.06247 1.13229-3.95578 0.869557-3.81441L0.869557-5.08944C1.22434-5.17479 1.58174-5.24015 1.94185-5.28682 2.30462-5.33217 2.66738-5.35617 3.03015-5.35617 3.97174-5.35617 4.65194-5.16945 5.06807-4.79603 5.48687-4.42527 5.6976-3.82108 5.6976-2.98219Z" fill="#FFFFFF" transform="matrix(1 0 0 1.00321 375.114 308.586)"/><path d="M2.63006-6.71112 2.63006-5.22802 4.35321-5.22802 4.35321-4.03302 2.63006-4.03302 2.63006-1.81374C2.63006-1.571 2.67807-1.40829 2.7741-1.32293 2.87013-1.23758 3.05951-1.1949 3.34493-1.1949L4.20383-1.1949 4.20383 0.000102429 2.7741 0.000102429C2.11258 0.000102429 1.64312-0.135936 1.36571-0.41067 1.09096-0.688081 0.954935-1.15488 0.954935-1.81374L0.954935-4.03302 0.128029-4.03302 0.128029-5.22802 0.954935-5.22802 0.954935-6.71112Z" fill="#FFFFFF" transform="matrix(1 0 0 1.00321 381.566 308.586)"/><path d="M6.02314-2.63006 6.02314-2.14994 2.11276-2.14994C2.15544-1.75785 2.29681-1.46442 2.53955-1.2697 2.78095-1.07365 3.12103-0.976288 3.55851-0.976288 3.91059-0.976288 4.26936-1.02697 4.63612-1.131 5.00555-1.23769 5.38433-1.39507 5.77243-1.60579L5.77243-0.320103C5.37767-0.170728 4.98288-0.0586984 4.58808 0.0159925 4.19332 0.0933466 3.79853 0.133359 3.40374 0.133359 2.45682 0.133359 1.7206-0.106707 1.1951-0.586851 0.672307-1.06697 0.410875-1.7405 0.410875-2.60876 0.410875-3.46233 0.668282-4.13184 1.18442-4.61998 1.69922-5.11078 2.40741-5.35616 3.30769-5.35616 4.12924-5.35616 4.78676-5.10676 5.28156-4.60929 5.77503-4.11449 6.02311-3.4543 6.02311-2.63006ZM4.30535-3.18488C4.30535-3.50097 4.21199-3.75571 4.02794-3.94777 3.84255-4.14249 3.60115-4.24118 3.3024-4.24118 2.97831-4.24118 2.71555-4.15049 2.51285-3.96911 2.31014-3.78772 2.18342-3.52631 2.13407-3.18488Z" fill="#FFFFFF" transform="matrix(1 0 0 1.00321 386.136 308.586)"/><path d="M4.35868-4.4652 4.35868-7.26598 6.03915-7.26598 6.03915-3.41429e-05 4.35868-3.41429e-05 4.35868-0.757596C4.13061-0.448176 3.87856-0.221451 3.60112-0.080065 3.32367 0.0613206 3.00095 0.133328 2.63552 0.133328 1.99135 0.133328 1.46319-0.122744 1.05109-0.634886 0.637652-1.14703 0.432249-1.80455 0.432249-2.60875 0.432249-3.41565 0.637638-4.07584 1.05109-4.58798 1.46319-5.10012 1.99135-5.35619 2.63552-5.35619 2.99829-5.35619 3.31838-5.28284 3.59579-5.13747 3.87587-4.99076 4.1306-4.76671 4.35868-4.46526ZM3.25969-1.07758C3.61447-1.07758 3.88652-1.20695 4.07591-1.46702 4.26396-1.72976 4.35865-2.10986 4.35865-2.60869 4.35865-3.10615 4.26396-3.48493 4.07591-3.74499 3.88652-4.00773 3.61443-4.13975 3.25969-4.13975 2.90358-4.13975 2.63153-4.00772 2.44347-3.74499 2.25408-3.48492 2.16072-3.10615 2.16072-2.60869 2.16072-2.10989 2.25408-1.72978 2.44347-1.46702 2.63152-1.20694 2.90361-1.07758 3.25969-1.07758Z" fill="#FFFFFF" transform="matrix(1 0 0 1.00321 392.619 308.586)"/><path d="M3.585-1.07762C3.94377-1.07762 4.21719-1.20699 4.40655-1.46705 4.5946-1.72979 4.68929-2.10989 4.68929-2.60872 4.68929-3.10618 4.5946-3.48496 4.40655-3.74503 4.21716-4.00777 3.94374-4.13979 3.585-4.13979 3.2249-4.13979 2.95015-4.00775 2.75809-3.74503 2.56871-3.48095 2.47535-3.10219 2.47535-2.60872 2.47535-2.11392 2.56871-1.73514 2.75809-1.47241 2.95015-1.20834 3.2249-1.07765 3.585-1.07765ZM2.47536-4.46524C2.70609-4.76665 2.96083-4.99073 3.23825-5.13744 3.51832-5.28281 3.84107-5.35617 4.20384-5.35617 4.85068-5.35617 5.38016-5.1001 5.7936-4.58795 6.2057-4.07581 6.41244-3.41562 6.41244-2.60873 6.41244-1.80449 6.20571-1.147 5.7936-0.634859 5.38016-0.122716 4.85068 0.133355 4.20384 0.133355 3.84107 0.133355 3.51832 0.0613342 3.23825-0.0800377 2.96083-0.225411 2.70609-0.450795 2.47536-0.757569L2.47536-6.82857e-06 0.805567-6.82857e-06 0.805567-7.26595 2.47536-7.26595Z" fill="#FFFFFF" transform="matrix(1 0 0 1.00321 402.791 308.586)"/><path d="M0.117366-5.22795 1.78716-5.22795 3.19555-1.68017 4.39055-5.22795 6.06034-5.22795 3.86239 0.496437C3.641 1.07526 3.38361 1.48071 3.08885 1.71278 2.79277 1.94751 2.406 2.06486 1.92588 2.06486L0.954925 2.06486 0.954925 0.965867 1.47772 0.965867C1.7618 0.965867 1.96852 0.919187 2.09656 0.827162 2.22726 0.737803 2.32862 0.577759 2.40064 0.347045L2.44865 0.203003Z" fill="#FFFFFF" transform="matrix(1 0 0 1.00321 409.635 308.586)"/><path d="M5.10538-1.2697 2.29925-1.2697 1.85112 0 0.0479707 0 2.63002-6.96719 4.76928-6.96719 7.35133 0 5.54818 0ZM2.74741-2.56071 4.65193-2.56071 3.70235-5.33482Z" fill="#FFFFFF" transform="matrix(1 0 0 1.00321 419.195 308.586)"/><path d="M0.880237-6.96719 3.16354-6.96719 4.7533-3.23811 6.34842-6.96719 8.63172-6.96719 8.63172 0 6.92991 0 6.92991-5.10026 5.32413-1.33908 4.18783-1.33908 2.58205-5.10026 2.58205 0 0.880237 0Z" fill="#FFFFFF" transform="matrix(1 0 0 1.00321 433.249 308.586)"/><path d="M4.24123-7.26594 4.24123-6.16695 3.31831-6.16695C3.08358-6.16695 2.91819-6.12427 2.82218-6.03892 2.72882-5.95356 2.68348-5.80418 2.68348-5.59079L2.68348-5.22802 4.11321-5.22802 4.11321-4.03302 2.68348-4.03302 2.68348-6.82857e-05 1.01368-6.82857e-05 1.01368-4.03302 0.181452-4.03302 0.181452-5.22802 1.01368-5.22802 1.01368-5.59079C1.01368-6.15896 1.17106-6.58039 1.48847-6.85513 1.80456-7.12854 2.2967-7.26591 2.96621-7.26591Z" fill="#FFFFFF" transform="matrix(1 0 0 1.00321 356.9 318.177)"/><path d="M4.68918-3.80386C4.5398-3.87054 4.39177-3.92122 4.24638-3.95323 4.10367-3.98791 3.95964-4.00658 3.81427-4.00658 3.38349-4.00658 3.05271-3.86787 2.82201-3.59045 2.58994-3.3157 2.47525-2.9236 2.47525-2.41146L2.47525-0.0001195 0.805464-0.0001195 0.805464-5.22807 2.47525-5.22807 2.47525-4.36918C2.68865-4.7106 2.93407-4.95869 3.21144-5.11605 3.49152-5.2761 3.82629-5.35612 4.21439-5.35612 4.2704-5.35612 4.33176-5.35212 4.39577-5.34545 4.46246-5.34145 4.55848-5.33211 4.68385-5.31877Z" fill="#FFFFFF" transform="matrix(1 0 0 1.00321 361.06 318.177)"/><path d="M3.29158-4.16133C2.92082-4.16133 2.63805-4.02796 2.44333-3.76121 2.24728-3.49447 2.14991-3.11038 2.14991-2.60889 2.14991-2.1074 2.24728-1.72329 2.44333-1.45657 2.63805-1.19249 2.92078-1.06181 3.29158-1.06181 3.65434-1.06181 3.93176-1.19251 4.12381-1.45657 4.31853-1.72331 4.41723-2.1074 4.41723-2.60889 4.41723-3.11038 4.31853-3.49449 4.12381-3.76121 3.93176-4.02795 3.65434-4.16133 3.29158-4.16133ZM3.29158-5.35633C4.19049-5.35633 4.89335-5.11226 5.39884-4.62547 5.90299-4.14132 6.1564-3.46915 6.1564-2.60892 6.1564-1.75136 5.903-1.07915 5.39884-0.592379 4.89335-0.108233 4.19049 0.133157 3.29158 0.133157 2.38734 0.133157 1.68181-0.108243 1.17366-0.592379 0.664181-1.07919 0.410773-1.75136 0.410773-2.60892 0.410773-3.46915 0.664178-4.14136 1.17366-4.62547 1.68181-5.11228 2.38734-5.35633 3.29158-5.35633Z" fill="#FFFFFF" transform="matrix(1 0 0 1.00321 365.774 318.177)"/><path d="M5.64962-4.35868C5.85901-4.68143 6.10976-4.92951 6.40182-5.10023 6.69257-5.27094 7.01267-5.3563 7.36209-5.3563 7.96225-5.3563 8.41973-5.16958 8.73313-4.79615 9.04922-4.42539 9.20792-3.88925 9.20792-3.18502L9.20792-0.000136571 7.52744-0.000136571 7.52744-2.72624 7.52744-2.84894C7.53011-2.89429 7.53278-2.9583 7.53278-3.041 7.53278-3.41042 7.47676-3.67718 7.36739-3.84124 7.2607-4.00795 7.08598-4.09197 6.8446-4.09197 6.52718-4.09197 6.28179-3.95994 6.10841-3.69721 5.9337-3.43714 5.84434-3.0597 5.84167-2.56623L5.84167-0.0001912 4.16119-0.0001912 4.16119-2.72629C4.16119-3.30512 4.11051-3.67724 4.01182-3.84126 3.91179-4.00798 3.73441-4.092 3.47834-4.092 3.15825-4.092 2.91016-3.95996 2.73679-3.69724 2.56207-3.43717 2.47538-3.06239 2.47538-2.57159L2.47538-0.000218514 0.794905-0.000218514 0.794905-5.22817 2.47538-5.22817 2.47538-4.46528C2.68077-4.76003 2.91552-4.98275 3.17958-5.13213 3.44632-5.2815 3.73973-5.35619 4.05982-5.35619 4.42258-5.35619 4.74267-5.26817 5.02008-5.09479 5.29749-4.92007 5.50689-4.67466 5.64961-4.3586Z" fill="#FFFFFF" transform="matrix(1 0 0 1.00321 372.342 318.177)"/><path d="M2.63006-6.71112 2.63006-5.22802 4.35321-5.22802 4.35321-4.03302 2.63006-4.03302 2.63006-1.81374C2.63006-1.571 2.67807-1.40829 2.7741-1.32293 2.87013-1.23758 3.05951-1.1949 3.34493-1.1949L4.20383-1.1949 4.20383 0.000102429 2.7741 0.000102429C2.11258 0.000102429 1.64312-0.135936 1.36571-0.41067 1.09096-0.688081 0.954935-1.15488 0.954935-1.81374L0.954935-4.03302 0.128029-4.03302 0.128029-5.22802 0.954935-5.22802 0.954935-6.71112Z" fill="#FFFFFF" transform="matrix(1 0 0 1.00321 385.632 318.177)"/><path d="M6.06036-3.18488 6.06036 0 4.37988 0 4.37988-2.42735C4.37988-2.88616 4.36921-3.20089 4.34787-3.37161 4.32653-3.54232 4.29052-3.66769 4.24117-3.75039 4.17716-3.85708 4.0878-3.93978 3.97443-4.00113 3.86374-4.06114 3.73703-4.09182 3.59565-4.09182 3.24623-4.09182 2.97282-3.95578 2.77411-3.68637 2.57405-3.41963 2.47536-3.04752 2.47536-2.5714L2.47536-3.41429e-05 0.805567-3.41429e-05 0.805567-7.26598 2.47536-7.26598 2.47536-4.4652C2.72743-4.76662 2.99416-4.9907 3.2756-5.13741 3.55968-5.28278 3.8731-5.35613 4.21453-5.35613 4.81868-5.35613 5.2775-5.16941 5.59089-4.79599 5.90298-4.42523 6.06036-3.88908 6.06036-3.18485Z" fill="#FFFFFF" transform="matrix(1 0 0 1.00321 390.201 318.177)"/><path d="M6.02314-2.63006 6.02314-2.14994 2.11276-2.14994C2.15544-1.75785 2.29681-1.46442 2.53955-1.2697 2.78095-1.07365 3.12103-0.976288 3.55851-0.976288 3.91059-0.976288 4.26936-1.02697 4.63612-1.131 5.00555-1.23769 5.38433-1.39507 5.77243-1.60579L5.77243-0.320103C5.37767-0.170728 4.98288-0.0586984 4.58808 0.0159925 4.19332 0.0933466 3.79853 0.133359 3.40374 0.133359 2.45682 0.133359 1.7206-0.106707 1.1951-0.586851 0.672307-1.06697 0.410875-1.7405 0.410875-2.60876 0.410875-3.46233 0.668282-4.13184 1.18442-4.61998 1.69922-5.11078 2.40741-5.35616 3.30769-5.35616 4.12924-5.35616 4.78676-5.10676 5.28156-4.60929 5.77503-4.11449 6.02311-3.4543 6.02311-2.63006ZM4.30535-3.18488C4.30535-3.50097 4.21199-3.75571 4.02794-3.94777 3.84255-4.14249 3.60115-4.24118 3.3024-4.24118 2.97831-4.24118 2.71555-4.15049 2.51285-3.96911 2.31014-3.78772 2.18342-3.52631 2.13407-3.18488Z" fill="#FFFFFF" transform="matrix(1 0 0 1.00321 397.007 318.177)"/><path d="M0.880237-6.96719 2.88613-6.96719 5.42018-2.18719 5.42018-6.96719 7.12199-6.96719 7.12199 0 5.1161 0 2.58205-4.78 2.58205 0 0.880237 0Z" fill="#FFFFFF" transform="matrix(1 0 0 1.00321 406.819 318.177)"/><path d="M3.29158-4.16133C2.92082-4.16133 2.63805-4.02796 2.44333-3.76121 2.24728-3.49447 2.14991-3.11038 2.14991-2.60889 2.14991-2.1074 2.24728-1.72329 2.44333-1.45657 2.63805-1.19249 2.92078-1.06181 3.29158-1.06181 3.65434-1.06181 3.93176-1.19251 4.12381-1.45657 4.31853-1.72331 4.41723-2.1074 4.41723-2.60889 4.41723-3.11038 4.31853-3.49449 4.12381-3.76121 3.93176-4.02795 3.65434-4.16133 3.29158-4.16133ZM3.29158-5.35633C4.19049-5.35633 4.89335-5.11226 5.39884-4.62547 5.90299-4.14132 6.1564-3.46915 6.1564-2.60892 6.1564-1.75136 5.903-1.07915 5.39884-0.592379 4.89335-0.108233 4.19049 0.133157 3.29158 0.133157 2.38734 0.133157 1.68181-0.108243 1.17366-0.592379 0.664181-1.07919 0.410773-1.75136 0.410773-2.60892 0.410773-3.46915 0.664178-4.14136 1.17366-4.62547 1.68181-5.11228 2.38734-5.35633 3.29158-5.35633Z" fill="#FFFFFF" transform="matrix(1 0 0 1.00321 414.82 318.177)"/><path d="M0.746875-2.03792 0.746875-5.22816 2.42735-5.22816 2.42735-4.70536C2.42735-4.41995 2.42468-4.06519 2.42202-3.6384 2.41802-3.21161 2.41668-2.92621 2.41668-2.78483 2.41668-2.36071 2.42735-2.05663 2.44869-1.87257 2.4727-1.68718 2.51004-1.55381 2.56072-1.47244 2.63141-1.36175 2.7221-1.27639 2.8328-1.21637 2.94216-1.15902 3.06887-1.13102 3.21158-1.13102 3.55967-1.13102 3.83308-1.26439 4.03312-1.53114 4.23185-1.79788 4.33187-2.16865 4.33187-2.64611L4.33187-5.22816 6.00167-5.22816 6.00167-0.000204857 4.33187-0.000204857 4.33187-0.757767C4.07847-0.451014 3.81174-0.225616 3.53163-0.0802357 3.25022 0.0611362 2.93946 0.133157 2.59803 0.133157 1.99654 0.133157 1.53773-0.0508933 1.22167-0.421664 0.904243-0.79109 0.746875-1.32993 0.746875-2.03812Z" fill="#FFFFFF" transform="matrix(1 0 0 1.00321 421.389 318.177)"/><path d="M6.06036-3.18488 6.06036 0 4.37988 0 4.37988-2.438C4.37988-2.88879 4.36921-3.20089 4.34787-3.37161 4.32653-3.54232 4.29052-3.66769 4.24117-3.75039 4.17716-3.85708 4.0878-3.93978 3.97443-4.00113 3.86374-4.06114 3.73703-4.09182 3.59565-4.09182 3.24623-4.09182 2.97282-3.95578 2.77411-3.68637 2.57405-3.41963 2.47536-3.04752 2.47536-2.5714L2.47536-3.41429e-05 0.805567-3.41429e-05 0.805567-5.22799 2.47536-5.22799 2.47536-4.4651C2.72743-4.76652 2.99416-4.99059 3.2756-5.13731 3.55968-5.28268 3.8731-5.35603 4.21453-5.35603 4.81868-5.35603 5.2775-5.16931 5.59089-4.79588 5.90298-4.42513 6.06036-3.88898 6.06036-3.18475Z" fill="#FFFFFF" transform="matrix(1 0 0 1.00321 428.195 318.177)"/><path d="M0.880237-6.96719 3.86241-6.96719C4.74801-6.96719 5.42684-6.7698 5.90033-6.37502 6.37645-5.98292 6.61521-5.42274 6.61521-4.69454 6.61521-3.96501 6.37648-3.40353 5.90033-3.00874 5.42687-2.61398 4.74801-2.41656 3.86241-2.41656L2.67274-2.41656 2.67274 0.000102429 0.880237 0.000102429ZM2.67274-5.66549 2.67274-3.71829 3.67036-3.71829C4.01844-3.71829 4.28653-3.80365 4.47592-3.97437 4.66798-4.14508 4.764-4.38514 4.764-4.69457 4.764-5.00666 4.66798-5.24673 4.47592-5.41478 4.28654-5.5815 4.01848-5.66552 3.67036-5.66552Z" fill="#FFFFFF" transform="matrix(1 0 0 1.00321 438.328 318.177)"/><path d="M4.68918-3.80386C4.5398-3.87054 4.39177-3.92122 4.24638-3.95323 4.10367-3.98791 3.95964-4.00658 3.81427-4.00658 3.38349-4.00658 3.05271-3.86787 2.82201-3.59045 2.58994-3.3157 2.47525-2.9236 2.47525-2.41146L2.47525-0.0001195 0.805464-0.0001195 0.805464-5.22807 2.47525-5.22807 2.47525-4.36918C2.68865-4.7106 2.93407-4.95869 3.21144-5.11605 3.49152-5.2761 3.82629-5.35612 4.21439-5.35612 4.2704-5.35612 4.33176-5.35212 4.39577-5.34545 4.46246-5.34145 4.55848-5.33211 4.68385-5.31877Z" fill="#FFFFFF" transform="matrix(1 0 0 1.00321 445.335 318.177)"/><path d="M3.29158-4.16133C2.92082-4.16133 2.63805-4.02796 2.44333-3.76121 2.24728-3.49447 2.14991-3.11038 2.14991-2.60889 2.14991-2.1074 2.24728-1.72329 2.44333-1.45657 2.63805-1.19249 2.92078-1.06181 3.29158-1.06181 3.65434-1.06181 3.93176-1.19251 4.12381-1.45657 4.31853-1.72331 4.41723-2.1074 4.41723-2.60889 4.41723-3.11038 4.31853-3.49449 4.12381-3.76121 3.93176-4.02795 3.65434-4.16133 3.29158-4.16133ZM3.29158-5.35633C4.19049-5.35633 4.89335-5.11226 5.39884-4.62547 5.90299-4.14132 6.1564-3.46915 6.1564-2.60892 6.1564-1.75136 5.903-1.07915 5.39884-0.592379 4.89335-0.108233 4.19049 0.133157 3.29158 0.133157 2.38734 0.133157 1.68181-0.108243 1.17366-0.592379 0.664181-1.07919 0.410773-1.75136 0.410773-2.60892 0.410773-3.46915 0.664178-4.14136 1.17366-4.62547 1.68181-5.11228 2.38734-5.35633 3.29158-5.35633Z" fill="#FFFFFF" transform="matrix(1 0 0 1.00321 450.049 318.177)"/><path d="M0.805567-5.22795 2.47536-5.22795 2.47536-0.0959414C2.47536 0.60426 2.30598 1.13907 1.96854 1.50983 1.63378 1.87926 1.147 2.06465 0.506817 2.06465L-0.320089 2.06465-0.320089 0.965662-0.0266724 0.965662C0.289415 0.965662 0.50681 0.893642 0.624159 0.75227 0.744191 0.609563 0.805543 0.326815 0.805543-0.0959756ZM0.805567-7.26587 2.47536-7.26587 2.47536-5.90016 0.805567-5.90016Z" fill="#FFFFFF" transform="matrix(1 0 0 1.00321 456.617 318.177)"/><path d="M6.02314-2.63006 6.02314-2.14994 2.11276-2.14994C2.15544-1.75785 2.29681-1.46442 2.53955-1.2697 2.78095-1.07365 3.12103-0.976288 3.55851-0.976288 3.91059-0.976288 4.26936-1.02697 4.63612-1.131 5.00555-1.23769 5.38433-1.39507 5.77243-1.60579L5.77243-0.320103C5.37767-0.170728 4.98288-0.0586984 4.58808 0.0159925 4.19332 0.0933466 3.79853 0.133359 3.40374 0.133359 2.45682 0.133359 1.7206-0.106707 1.1951-0.586851 0.672307-1.06697 0.410875-1.7405 0.410875-2.60876 0.410875-3.46233 0.668282-4.13184 1.18442-4.61998 1.69922-5.11078 2.40741-5.35616 3.30769-5.35616 4.12924-5.35616 4.78676-5.10676 5.28156-4.60929 5.77503-4.11449 6.02311-3.4543 6.02311-2.63006ZM4.30535-3.18488C4.30535-3.50097 4.21199-3.75571 4.02794-3.94777 3.84255-4.14249 3.60115-4.24118 3.3024-4.24118 2.97831-4.24118 2.71555-4.15049 2.51285-3.96911 2.31014-3.78772 2.18342-3.52631 2.13407-3.18488Z" fill="#FFFFFF" transform="matrix(1 0 0 1.00321 459.894 318.177)"/><path d="M5.02549-5.0627 5.02549-3.70232C4.80142-3.85836 4.57337-3.97439 4.34263-4.04907 4.11457-4.12376 3.87849-4.1611 3.63311-4.1611 3.16631-4.1611 2.80221-4.02373 2.53948-3.75033 2.2794-3.47958 2.15004-3.0995 2.15004-2.60866 2.15004-2.12052 2.27941-1.7404 2.53948-1.46699 2.80222-1.19625 3.16631-1.06154 3.63311-1.06154 3.89185-1.06154 4.13992-1.09889 4.37466-1.17357 4.60939-1.25093 4.82544-1.36696 5.02549-1.52033L5.02549-0.154613C4.76541-0.0585857 4.49999 0.0121002 4.23061 0.0587803 3.96387 0.108127 3.69313 0.133468 3.41971 0.133468 2.47679 0.133468 1.73924-0.107932 1.20576-0.592068 0.674936-1.07488 0.410875-1.74705 0.410875-2.60861 0.410875-3.47284 0.67495-4.14637 1.20576-4.63052 1.73924-5.11333 2.47679-5.35605 3.41971-5.35605 3.69312-5.35605 3.96388-5.33071 4.23061-5.28137 4.49735-5.23469 4.76143-5.16133 5.02549-5.06264Z" fill="#FFFFFF" transform="matrix(1 0 0 1.00321 466.379 318.177)"/><path d="M2.63006-6.71112 2.63006-5.22802 4.35321-5.22802 4.35321-4.03302 2.63006-4.03302 2.63006-1.81374C2.63006-1.571 2.67807-1.40829 2.7741-1.32293 2.87013-1.23758 3.05951-1.1949 3.34493-1.1949L4.20383-1.1949 4.20383 0.000102429 2.7741 0.000102429C2.11258 0.000102429 1.64312-0.135936 1.36571-0.41067 1.09096-0.688081 0.954935-1.15488 0.954935-1.81374L0.954935-4.03302 0.128029-4.03302 0.128029-5.22802 0.954935-5.22802 0.954935-6.71112Z" fill="#FFFFFF" transform="matrix(1 0 0 1.00321 472.044 318.177)"/></g></svg>