<svg width="274" height="274" xmlns="http://www.w3.org/2000/svg" xmlns:xlink="http://www.w3.org/1999/xlink" overflow="hidden"><defs><clipPath id="clip0"><rect x="764" y="197" width="274" height="274"/></clipPath></defs><g clip-path="url(#clip0)" transform="translate(-764 -197)"><path d="M846.771 271.208C851.623 271.208 855.333 267.498 855.333 262.646L855.333 245.521C855.333 240.669 851.623 236.958 846.771 236.958 841.919 236.958 838.208 240.669 838.208 245.521L838.208 262.646C838.208 267.498 841.919 271.208 846.771 271.208Z" fill="#FFFFFF"/><path d="M821.083 391.083 866.75 391.083 866.75 413.917 821.083 413.917 821.083 391.083ZM821.083 356.833 866.75 356.833 866.75 379.667 821.083 379.667 821.083 356.833ZM821.083 322.583 866.75 322.583 866.75 345.417 821.083 345.417 821.083 322.583ZM923.833 322.583 923.833 345.417 878.167 345.417 878.167 322.583 923.833 322.583ZM980.917 322.583 980.917 345.417 935.25 345.417 935.25 322.583 980.917 322.583ZM980.917 379.667 935.25 379.667 935.25 356.833 980.917 356.833 980.917 379.667ZM980.917 413.917 935.25 413.917 935.25 391.083 980.917 391.083 980.917 413.917ZM878.167 379.667 878.167 356.833 923.833 356.833 923.833 379.667 878.167 379.667ZM878.167 413.917 878.167 391.083 923.833 391.083 923.833 413.917 878.167 413.917ZM803.958 431.042 998.042 431.042 998.042 305.458 803.958 305.458 803.958 431.042Z" fill="#FFFFFF"/><path d="M955.229 271.208C960.081 271.208 963.792 267.498 963.792 262.646L963.792 245.521C963.792 240.669 960.081 236.958 955.229 236.958 950.377 236.958 946.667 240.669 946.667 245.521L946.667 262.646C946.667 267.498 950.377 271.208 955.229 271.208Z" fill="#FFFFFF"/><path d="M975.208 254.083 975.208 262.646C975.208 273.777 966.36 282.625 955.229 282.625 944.098 282.625 935.25 273.777 935.25 262.646L935.25 254.083 866.75 254.083 866.75 262.646C866.75 273.777 857.902 282.625 846.771 282.625 835.64 282.625 826.792 273.777 826.792 262.646L826.792 254.083 803.958 254.083 803.958 294.042 998.042 294.042 998.042 254.083 975.208 254.083Z" fill="#FFFFFF"/></g></svg>